<svg width="61" height="77" viewBox="0 0 61 77" fill="none" xmlns="http://www.w3.org/2000/svg">
<path d="M52 42.5C51.6863 39.2064 53.4448 33.9426 53.5 28.5C53.5622 22.3752 51.875 18.5 53.5 12C54.262 8.95184 52.4326 7.34895 49.5 7.5C46.66 7.64628 42.738 9.5 42 9.5C40.3937 9.5 37.7201 7.88278 35.5 8C32.9811 8.133 32 9.5 31 9.5C30.2126 9.5 27.7696 7.96026 26 8C23.002 8.06732 20.4433 9.5 19.5 9.5C16.5 9.5 12 5 8.5 8.5C7 10 8.5 16 8.5 19.5C8.5 23.495 7.5 25.9766 7.5 28.5C7.5 31.5 10.4487 38.154 9 42.5M52 42.5L30.5 27.5L9 42.5M52 42.5C51.7279 44.5676 54.8025 45.3831 53.8026 49.5M9 42.5C8.14045 44.609 8.1266 47.2457 8.81711 49.5M8.81711 49.5C9.09801 50.417 9.49548 51.2708 10 52C11.1318 53.6358 13.0919 53.8103 14.5 55.5C15.0527 56.1632 15.4986 56.7764 15.8816 57.3459M8.81711 49.5L31 33L53.8026 49.5M53.8026 49.5C53.7265 49.8135 53.6267 50.1462 53.5 50.5C52.4508 53.4305 48.0039 54.2427 46.3474 56.5C46.1109 56.8223 45.9165 57.158 45.7485 57.5M19.5 8V2M17.5 3.5H21M17 6H21.5M43 2V8M40.5 6H45M44.5 3.5H41M57 18.5V25M55.5 20H58M58.5 22.5H55M57 36.8022V42.5M55.5 38H58.5M59 40.5H55M49 56.5V63M47.5 58H50.5M51 60.5H47M38.5 65.5V69M39.5 66H37.5M37 68H40M23 69V64.8833M24 66H22M21.5 68H24.5M13 63V56.5M11 58H14.5M15 60.5H10.5M4.5 42.5V36.5M6 38H3M2.5 40.5H6.5M4.5 24.5V18.7694M6 20H3M2.5 22.5H7M31 54V39.5M37 52.5H35.5C34.8333 52.5 33.5 52.9 33.5 54.5H24C23.6667 53.5 22.5 51.5 20.5 51.5V49H17V50.5L22 57H39.5L43.5 52.5H37ZM37 52.5V44M26 54.5V52.5M37 44V42L39.5 43L37 44ZM31 39.5V36.8022L34 38L31 39.5ZM26 43V40.5L28.5 41L26 43ZM26 43V45.5M26 45.5H23.5V47.5H26M26 45.5V47.5M26 47.5V48.5M26 48.5H23.5V50H26M26 48.5V50M26 50V51M26 51H23.5V52.5H26M26 51V52.5M45.7485 57.5C44.4812 57.6469 43.5 56.5 42 56.5C40 56.5 37.9959 57.9265 36 58M45.7485 57.5C45.2857 58.4422 45.0229 59.4325 44.6302 60.3236M15.8816 57.3459C16.9546 57.529 18 56 20 56M15.8816 57.3459C16.562 58.3575 17.0438 59.2308 17.5722 60M20 56C21.5 56 23.1577 58.119 24.7044 58.195M20 56L24.7044 58.195M24.7044 58.195C26.4694 58.2816 28.4132 56.9936 30.5 57M30.5 57C32.1728 57.0052 34.1618 58.0677 36 58M30.5 57L36 58M44.6302 60.3236C44.3551 60.9479 44.0161 61.5236 43.5 62C42.0045 63.3803 38.807 63.5 37.5 64.8833C35.5 67 32.5 68 31.5 68C30.4937 68 28.8805 67.6289 27.5 67C26.6895 66.6308 26.0001 66.0438 25.3511 65.5M44.6302 60.3236C43.5976 60.4554 42.5515 59.9108 41.5 60C39.9437 60.132 38.0531 61.4477 36.5 61.5C34.5161 61.5668 32.3793 60.0327 30.5 60C28.9336 59.9727 26.9228 61.5745 25.5 61.5C23.0049 61.3693 22.2803 60.192 20.5 60C19.5576 59.8984 18.2398 60.0959 17.5722 60M17.5722 60C18.0919 60.7565 18.6567 61.4123 19.5 62C21.3792 63.3097 22.121 63.458 24 64.5C24.4493 64.7492 24.89 65.1137 25.3511 65.5M25.3511 65.5C29.8702 63.1 35 64.5 37 65.5M1 1H60V46C60 64 39 66.5 30.5 76C21 66 1 63 1 47.5V1ZM35.5 50H38.5V52H35.5V50ZM35.5 47.5H38.5V49.5H35.5V47.5ZM35.5 47V45H38.5V47H35.5ZM29.5 51H33V49H29.5V51ZM29.5 47.5H33V45.5H29.5V47.5ZM29.5 44H33V41.5H29.5V44Z" stroke="#C3F376" stroke-width="2" stroke-linecap="round" stroke-linejoin="round"/>
</svg>
