<svg width="70" height="112" viewBox="0 0 70 112" fill="none" xmlns="http://www.w3.org/2000/svg">
<path d="M47.9962 91.9892C63.0034 72.1441 49.599 56.8847 35.1611 69.2809C14.1312 67.8987 19.7589 87.2501 37.3332 93.8651C40.8448 95.1869 44.3431 98.308 45.4291 99.9865C45.4291 98.4067 46.5325 93.9247 47.9962 91.9892Z" fill="#9FE95A"/>
<path d="M43.4546 95.3456L41.9736 90.6911M35.1611 69.2805C25.6829 36.8175 49.6747 30.9726 61.2263 35.0206C61.3294 35.0568 61.4315 35.0937 61.5325 35.1316M35.1611 69.2805C49.5991 56.8843 63.0034 72.1437 47.9962 91.9888C46.5326 93.9243 45.4292 98.4064 45.4292 99.9861C44.3432 98.3076 40.8449 95.1865 37.3332 93.8647C19.759 87.2497 14.1313 67.8983 35.1611 69.2805ZM35.1611 69.2805L35.5067 70.3666M63.7933 51.6076C61.2263 42.0306 46.7127 38.4762 53.229 63.1592M63.7933 51.6076C64.5343 55.9478 65.373 59.6048 64.8793 63.949M63.7933 51.6076C67.0318 50.5849 68.799 47.9869 68.9838 45.0913M53.229 103.343C54.3136 102.354 55.6212 100.607 56.9684 98.3076M64.8793 63.949C57.3757 65.1338 55.9277 56.3138 54.71 52.4962M64.8793 63.949C66.5567 76.3766 61.5355 90.5132 56.9684 98.3076M68.9838 45.0913C65.7792 44.9333 64.3857 45.8153 64.0895 46.276M68.9838 45.0913C69.2227 41.3492 66.8189 37.1101 61.5325 35.1316M61.5325 35.1316C64.4844 19.6185 44.0753 17.3773 30.6195 24.6538M28.2499 46.9672C21.9289 50.2866 18.3743 49.9362 17.0076 47.6583M17.0076 47.6583C13.0453 63.949 9.98458 67.7995 5.34419 68.6881M17.0076 47.6583C16.3247 46.5202 16.188 44.901 16.5251 43.0179M16.5251 43.0179C17.3999 38.132 21.4651 31.4697 27.4601 26.8259C28.6005 25.9425 29.3332 25.3494 30.6195 24.6538M16.5251 43.0179L12.4529 53.8784M30.6195 24.6538C31.3619 21.3582 31.4966 18.79 31.2068 16.854M18.278 20.2108C19.1338 16.645 21.5093 13.8905 24.0045 12.6729M31.2068 16.854C25.7609 17.8808 23.9386 17.2818 23.7083 16.854M31.2068 16.854C30.4874 12.0463 27.1508 11.1376 24.0045 12.6729M24.0045 12.6729C22.0751 5.86526 19.2492 2.44955 16.5009 1.27166M16.5009 1.27166C16.8958 6.88207 13.4402 10.0415 12.1567 10.9301M16.5009 1.27166C12.183 0.339068 8.79611 1.80604 8.00994 5.6973C7.69954 7.23366 8.2165 9.31461 8.60233 11.5224C12.8676 35.9289 0.999999 36.3876 1 62.2706C1 101.072 52.6366 126.249 56.9684 98.3076M35.5067 70.3666C41.865 66.5753 45.4292 65.8907 46.4165 66.0224M35.5067 70.3666C37.8092 71.4014 43.7375 69.6152 47.4038 69.2805C49.3344 69.1043 49.2797 69.8729 50.662 70.3666M35.5067 70.3666C27.8846 71.2354 25.2551 73.8222 24.893 75.0069M35.5067 70.3666L35.758 71.1564M35.758 71.1564C28.4088 77.6332 27.4601 80.2397 27.4601 83.4979M35.758 71.1564L36.512 73.526M36.512 73.526C48.4899 72.7361 51.0569 73.8222 51.0569 74.2171M36.512 73.526C36.512 75.2854 34.7392 78.0475 32.989 79.9435C30.6195 82.5106 30.8169 86.0649 30.8169 87.8421M36.512 73.526L37.037 75.1761M37.037 75.1761C40.2754 78.0422 45.8241 75.1057 51.2544 79.6473M37.037 75.1761L38.1141 78.5613M38.1141 78.5613C37.1358 82.1156 34.8649 84.5839 35.1611 90.9027M38.1141 78.5613C39.3299 80.2462 42.7458 80.315 45.8241 81.1283C47.3637 81.535 48.9835 82.1156 49.8721 83.2017M38.1141 78.5613L39.5278 83.0042M39.5278 83.0042C40.9315 85.1368 46.9102 84.5839 48.9835 87.3484M39.5278 83.0042L39.7477 83.6953M39.7477 83.6953C38.6167 87.6446 38.1231 91.5939 38.518 92.8774M39.7477 83.6953L40.7888 86.9675M40.7888 86.9675C43.7508 87.6446 45.3305 88.6037 45.8241 89.4218M40.7888 86.9675L41.1299 88.0395M41.9736 90.6911L45.4292 94.2596M41.9736 90.6911L41.1299 88.0395M41.1299 88.0395L40.7888 92.4825" stroke="#C3F376" stroke-width="2" stroke-linecap="round" stroke-linejoin="round"/>
</svg>
