<svg width="1180" height="644" viewBox="0 0 1180 644" fill="none" xmlns="http://www.w3.org/2000/svg">
<path d="M654.865 -58.0129L654.982 -59.0062C654.903 -59.0154 654.823 -59.0152 654.744 -59.0055L654.865 -58.0129ZM466.807 100.967L466.127 101.701L466.807 100.967ZM851.59 102.448L852.279 103.173L851.59 102.448ZM139.124 74.8351L138.979 73.8456L139.124 74.8351ZM167.552 72.6302L167.486 71.6323L167.552 72.6302ZM228.928 101.981L228.753 100.996L228.928 101.981ZM270.561 124.959C270.802 125.456 271.4 125.663 271.897 125.422C272.394 125.18 272.601 124.582 272.36 124.085L270.561 124.959ZM45.1635 209.019C45.1014 209.568 45.4959 210.063 46.0446 210.125C46.5934 210.187 47.0887 209.793 47.1508 209.244L45.1635 209.019ZM73.4166 152.315L72.83 151.506L73.4166 152.315ZM129.854 153.994C130.284 154.341 130.913 154.273 131.26 153.843C131.606 153.413 131.538 152.783 131.108 152.437L129.854 153.994ZM108.956 186.636C108.829 187.174 109.163 187.712 109.701 187.838C110.238 187.964 110.777 187.63 110.903 187.093L108.956 186.636ZM61.1836 142.463L62.1172 142.822L61.1836 142.463ZM69.8584 49.171C70.2048 48.7408 70.1369 48.1113 69.7068 47.7649C69.2767 47.4185 68.6471 47.4863 68.3007 47.9165L69.8584 49.171ZM47.743 78.6545C47.233 78.4426 46.6478 78.6842 46.4358 79.1942C46.2239 79.7042 46.4655 80.2895 46.9755 80.5014L47.743 78.6545ZM100.264 89.0988L100.822 89.9287L100.264 89.0988ZM125.993 45.8532L126.869 46.3363L125.993 45.8532ZM164.87 16.1341C165.417 16.0611 165.802 15.558 165.729 15.0106C165.656 14.4632 165.153 14.0787 164.605 14.1517L164.87 16.1341ZM130.09 -2.24701C129.812 -2.72443 129.2 -2.88638 128.722 -2.60873C128.245 -2.33108 128.083 -1.71898 128.361 -1.24156L130.09 -2.24701ZM211.785 63.7637L212.091 64.7156L211.785 63.7637ZM274.654 25.0195L275.591 25.3677C275.646 25.2201 275.665 25.0616 275.647 24.9051L274.654 25.0195ZM225.203 9.17747L224.226 9.3886L225.203 9.17747ZM218.101 -10.0552C217.773 -10.4998 217.147 -10.5948 216.703 -10.2672C216.258 -9.93969 216.163 -9.31368 216.491 -8.86901L218.101 -10.0552ZM251.828 -14.4158C252.354 -14.5869 252.641 -15.1512 252.47 -15.6764C252.299 -16.2015 251.734 -16.4886 251.209 -16.3175L251.828 -14.4158ZM274.567 24.4276C274.017 24.388 273.538 24.8025 273.498 25.3534C273.459 25.9042 273.873 26.3829 274.424 26.4224L274.567 24.4276ZM278.56 78.6421C278.991 78.2964 279.06 77.6671 278.714 77.2363C278.369 76.8055 277.739 76.7364 277.309 77.082L278.56 78.6421ZM725.298 609.145L725.269 610.145L725.298 609.145ZM583.539 523.707L583.397 522.717C582.887 522.79 582.517 523.237 582.54 523.751L583.539 523.707ZM862.631 617.039C863.182 617.078 863.66 616.663 863.699 616.112C863.737 615.561 863.322 615.083 862.771 615.044L862.631 617.039ZM742.99 609.706L743.024 608.707L742.99 609.706ZM613.488 750.218L612.494 750.106C612.456 750.448 612.596 750.785 612.865 751C613.134 751.214 613.494 751.275 613.819 751.161L613.488 750.218ZM577.845 608.686L578.687 609.227C578.904 608.889 578.898 608.454 578.671 608.122C578.445 607.791 578.042 607.627 577.649 607.706L577.845 608.686ZM422.361 749.174L421.4 748.899C421.291 749.28 421.418 749.69 421.722 749.943C422.027 750.196 422.453 750.245 422.807 750.069L422.361 749.174ZM546.043 609.66L546.08 610.659L546.043 609.66ZM400.304 517.297L400.155 516.308C399.877 516.35 399.63 516.506 399.473 516.74C399.317 516.974 399.266 517.262 399.333 517.535L400.304 517.297ZM302.076 737.75L301.101 737.525C301.018 737.885 301.14 738.262 301.419 738.505C301.698 738.748 302.088 738.817 302.434 738.684L302.076 737.75ZM267.092 634.521C266.542 634.573 266.138 635.061 266.19 635.61C266.243 636.16 266.73 636.564 267.28 636.512L267.092 634.521ZM256.217 547.247L256.095 546.255C255.777 546.294 255.498 546.482 255.343 546.762C255.188 547.042 255.176 547.379 255.31 547.669L256.217 547.247ZM1188.33 104.372C1188.3 103.821 1187.82 103.406 1187.27 103.445C1186.72 103.484 1186.3 103.963 1186.34 104.514L1188.33 104.372ZM1038.47 138.399C1037.99 138.137 1037.38 138.32 1037.12 138.807C1036.86 139.294 1037.04 139.9 1037.53 140.161L1038.47 138.399ZM1077.07 87.6262L1077.84 86.9909L1077.07 87.6262ZM1121.58 43.7075C1121.17 43.3383 1120.53 43.3721 1120.16 43.7828C1119.8 44.1936 1119.83 44.8259 1120.24 45.195L1121.58 43.7075ZM1011.49 56.2637C1011.09 55.8832 1010.46 55.8992 1010.07 56.2995C1009.69 56.6998 1009.71 57.3328 1010.11 57.7133L1011.49 56.2637ZM1031.21 17.5907C1030.82 17.194 1030.19 17.1838 1029.79 17.568C1029.4 17.9522 1029.39 18.5853 1029.77 18.982L1031.21 17.5907ZM1067.59 -5.24953C1067.18 -5.62555 1066.55 -5.60247 1066.17 -5.19796C1065.8 -4.79345 1065.82 -4.16071 1066.23 -3.78469L1067.59 -5.24953ZM1205.68 252.628C1205.93 253.119 1206.54 253.311 1207.03 253.058C1207.52 252.805 1207.71 252.202 1207.46 251.711L1205.68 252.628ZM1081.06 181.596L1081.6 182.438C1081.96 182.207 1082.14 181.771 1082.03 181.355C1081.93 180.938 1081.57 180.635 1081.14 180.6L1081.06 181.596ZM1162.88 92.4372L1161.88 92.4625C1161.89 92.8772 1162.15 93.2424 1162.54 93.3803C1162.94 93.5183 1163.37 93.4003 1163.64 93.0839L1162.88 92.4372ZM1106.53 25.4534L1105.53 25.4902C1105.54 25.9129 1105.82 26.28 1106.23 26.4071C1106.63 26.5343 1107.07 26.3939 1107.33 26.0566L1106.53 25.4534ZM1047.76 -10.8789L1047.1 -10.1293C1047.38 -9.87707 1047.79 -9.80911 1048.14 -9.95401C1048.49 -10.0989 1048.73 -10.4315 1048.76 -10.8117L1047.76 -10.8789ZM1006.42 37.4361L1006.71 38.395C1007.07 38.288 1007.34 37.9863 1007.41 37.6151C1007.47 37.2439 1007.33 36.8662 1007.03 36.6386L1006.42 37.4361ZM1024.56 106.373L1024.81 107.34C1025.18 107.241 1025.46 106.941 1025.54 106.566C1025.61 106.191 1025.46 105.806 1025.16 105.576L1024.56 106.373ZM853.859 614.426C853.308 614.379 852.824 614.787 852.778 615.338C852.731 615.888 853.139 616.372 853.689 616.419L853.859 614.426ZM976.912 622.866L977.707 623.473C977.944 623.162 977.979 622.743 977.796 622.398C977.614 622.053 977.247 621.846 976.858 621.868L976.912 622.866ZM880.298 539.358L880.605 538.406C880.314 538.312 879.997 538.357 879.743 538.527C879.489 538.696 879.326 538.973 879.302 539.278L880.298 539.358ZM984.791 560.183L985.689 560.624C985.816 560.364 985.825 560.061 985.713 559.794C985.6 559.528 985.378 559.323 985.102 559.233L984.791 560.183ZM888.676 515.103L888.679 514.103L888.676 515.103ZM930.863 472.337L931.819 472.044C931.664 471.539 931.142 471.241 930.629 471.365L930.863 472.337ZM869.561 512.902L869.316 513.871L869.561 512.902ZM889.32 454.16L890.255 453.806C890.113 453.43 889.759 453.176 889.357 453.161C888.955 453.146 888.583 453.374 888.414 453.739L889.32 454.16ZM855.237 506.838L855.783 506.001L855.237 506.838ZM820.045 547.922L819.045 547.933C819.05 548.382 819.353 548.772 819.787 548.888L820.045 547.922ZM865.303 450.569C865.855 450.544 866.282 450.077 866.257 449.525C866.233 448.974 865.765 448.546 865.214 448.571L865.303 450.569ZM785.055 457.003L784.713 456.063C784.458 456.156 784.252 456.348 784.142 456.595C784.031 456.843 784.026 457.124 784.127 457.376L785.055 457.003ZM54.1446 675.223C54.5456 674.843 54.5627 674.21 54.1828 673.809C53.803 673.408 53.1701 673.391 52.7691 673.771L54.1446 675.223ZM-35.7973 655.548C-35.9639 655.022 -36.5258 654.73 -37.0523 654.896C-37.5789 655.063 -37.8708 655.625 -37.7042 656.151L-35.7973 655.548ZM-29.439 580.91C-29.686 580.416 -30.2867 580.216 -30.7807 580.463C-31.2746 580.71 -31.4747 581.311 -31.2277 581.805L-29.439 580.91ZM64.2612 611.71C64.7098 611.387 64.8123 610.763 64.4902 610.314C64.168 609.865 63.5432 609.763 63.0946 610.085L64.2612 611.71ZM-7.41024 498.066C-7.66801 497.578 -8.27294 497.391 -8.76138 497.649C-9.24981 497.907 -9.4368 498.511 -9.17902 499L-7.41024 498.066ZM87.1221 530.609C87.5968 530.327 87.7527 529.713 87.4703 529.238C87.188 528.764 86.5743 528.608 86.0996 528.89L87.1221 530.609ZM77.2383 413.198L78.1729 413.554H78.1729L77.2383 413.198ZM78.7486 412.041C78.9451 411.525 78.6859 410.947 78.1697 410.751C77.6536 410.554 77.0759 410.814 76.8794 411.33L78.7486 412.041ZM33.2235 431.314C33.0312 430.796 32.4556 430.532 31.9378 430.725C31.4201 430.917 31.1563 431.492 31.3486 432.01L33.2235 431.314ZM93.2074 467.059C93.715 466.841 93.9501 466.253 93.7325 465.746C93.5148 465.238 92.9269 465.003 92.4193 465.221L93.2074 467.059ZM-34.6713 875.899C-34.7462 876.447 -34.3632 876.951 -33.816 877.026C-33.2689 877.101 -32.7646 876.718 -32.6898 876.17L-34.6713 875.899ZM126.85 308L127.832 308.19C127.91 307.788 127.735 307.379 127.39 307.158C127.045 306.937 126.601 306.949 126.268 307.187L126.85 308ZM1208.9 539.13L1209.88 538.935L1209.59 537.437L1208.33 538.309L1208.9 539.13ZM1190.67 551.799L1189.72 551.478L1188.74 554.353L1191.24 552.621L1190.67 551.799ZM1209.28 455.485L1209.91 454.705L1209.13 454.079L1208.5 454.86L1209.28 455.485ZM1185.73 484.876L1184.75 484.661L1186.51 485.502L1185.73 484.876ZM1180.84 367.764L1179.9 368.115L1179.9 368.115L1180.84 367.764ZM1180.77 367.569L1181.7 367.217L1181.09 365.573L1179.99 366.944L1180.77 367.569ZM1167.45 384.181L1166.47 384.378L1166.89 386.479L1168.23 384.807L1167.45 384.181ZM1110.45 296.522L1111.08 295.741L1110.18 295.018L1109.59 296.015L1110.45 296.522ZM1090.82 406.71L1090.48 407.652L1093.7 408.8L1091.61 406.097L1090.82 406.71ZM1062.53 396.634L1062.87 395.692L1061.3 395.131L1061.55 396.783L1062.53 396.634ZM1098.02 498.533L1097.75 499.497L1099.79 500.063L1098.94 498.129L1098.02 498.533ZM1069.94 490.721L1070.21 489.757L1068.26 489.213L1069.02 491.095L1069.94 490.721ZM1112.61 596.271L1112.3 597.222L1114.34 597.885L1113.53 595.896L1112.61 596.271ZM1094.98 590.539L1095.29 589.588L1093.7 589.072L1094 590.714L1094.98 590.539ZM654.744 -59.0055C555.176 -46.8281 498.255 -15.9375 471.064 16.5844C443.864 49.1174 446.4 83.4087 466.127 101.701L467.487 100.234C448.755 82.8646 445.877 49.8279 472.599 17.8672C499.33 -14.1046 555.668 -44.8733 654.987 -57.0203L654.744 -59.0055ZM466.127 101.701C481.401 115.864 506.704 120.136 535.632 106.752C564.547 93.3741 597.138 62.3566 627.329 5.82253L625.565 4.88037C595.494 61.1882 563.176 91.8047 534.792 104.937C506.421 118.064 482.034 113.723 467.487 100.234L466.127 101.701ZM627.329 5.82253C637.14 -12.5471 646.7 -33.6163 655.801 -57.6589L653.93 -58.367C644.856 -34.3956 635.331 -13.4056 625.565 4.88037L627.329 5.82253ZM654.396 -58.8959C590.823 -25.088 546.176 8.49464 516.186 36.7581C486.22 64.9998 470.837 87.9794 465.876 100.602L467.738 101.333C472.544 89.1042 487.688 66.364 517.558 38.2136C547.404 10.085 591.902 -23.3968 655.335 -57.13L654.396 -58.8959ZM654.749 -57.0197C753.006 -45.5202 810.921 -14.0399 839.784 18.6615C868.691 51.4113 868.352 85.1155 850.9 101.724L852.279 103.173C870.848 85.501 870.546 50.4906 841.284 17.338C811.979 -15.8632 753.522 -47.4734 654.982 -59.0062L654.749 -57.0197ZM850.9 101.724C838.591 113.439 817.432 117.036 790.996 105.6C764.557 94.1624 732.97 67.7188 700.153 19.6189L698.501 20.746C731.441 69.0269 763.294 95.7951 790.202 107.435C817.111 119.076 839.206 115.615 852.279 103.173L850.9 101.724ZM700.153 19.6189C685.48 -1.88755 670.568 -27.7141 655.766 -58.4469L653.964 -57.579C668.803 -26.7689 683.764 -0.853893 698.501 20.746L700.153 19.6189ZM654.409 -57.123C771.736 2.99356 834.208 74.739 850.727 102.954L852.453 101.943C835.706 73.3383 772.918 1.35179 655.321 -58.9029L654.409 -57.123ZM654.094 -57.3768C676.347 -30.3855 690.445 -4.1292 698.375 20.489L700.279 19.8758C692.263 -5.0092 678.032 -31.4853 655.637 -58.6491L654.094 -57.3768ZM698.375 20.489C713.275 66.7459 706.417 107.278 690.855 136.156C675.25 165.113 651.029 182.161 631.319 181.897L631.292 183.897C652.063 184.175 676.837 166.383 692.615 137.105C708.435 107.749 715.347 66.6524 700.279 19.8758L698.375 20.489ZM631.319 181.897C623.128 181.787 615.685 178.696 609.864 172.189C604.025 165.663 599.756 155.63 598.097 141.55C594.776 113.371 601.946 69.2839 627.376 5.7229L625.519 4.98C600.045 68.6531 592.732 113.112 596.11 141.784C597.801 156.129 602.177 166.597 608.373 173.523C614.588 180.468 622.571 183.78 631.292 183.897L631.319 181.897ZM627.376 5.7229C635.09 -13.5579 644.481 -34.6234 655.763 -57.5717L653.968 -58.4541C642.666 -35.4658 633.254 -14.3535 625.519 4.98L627.376 5.7229ZM653.865 -58.0168C653.31 86.3133 637.925 162.563 630.37 182.543L632.241 183.25C639.929 162.919 655.31 86.3686 655.865 -58.0091L653.865 -58.0168ZM139.268 75.8245C149.872 74.2711 159.622 74.1541 167.617 73.628L167.486 71.6323C159.625 72.1496 149.686 72.2769 138.979 73.8456L139.268 75.8245ZM138.558 75.6598C172.967 99.2536 202.012 107.773 229.103 102.965L228.753 100.996C202.38 105.676 173.869 97.4473 139.689 74.0103L138.558 75.6598ZM229.007 102.978C241.016 102.029 250.753 106.186 257.834 111.274C264.942 116.381 269.308 122.379 270.561 124.959L272.36 124.085C270.944 121.17 266.344 114.925 259.001 109.65C251.634 104.356 241.438 99.9896 228.849 100.984L229.007 102.978ZM47.1508 209.244C48.3023 199.075 49.7472 189.681 51.4494 181.002L49.4868 180.617C47.7733 189.353 46.3205 198.801 45.1635 209.019L47.1508 209.244ZM51.3582 181.265C58.1734 167.958 65.9722 158.942 74.0032 153.125L72.83 151.506C64.4967 157.542 56.508 166.823 49.578 180.354L51.3582 181.265ZM74.0032 153.125C94.9848 137.928 117.896 144.364 129.854 153.994L131.108 152.437C118.631 142.388 94.7166 135.653 72.83 151.506L74.0032 153.125ZM73.5378 153.308C91.6696 151.095 101.141 156.331 105.794 163.437C110.514 170.645 110.492 180.088 108.956 186.636L110.903 187.093C112.507 180.255 112.601 170.182 107.467 162.341C102.265 154.397 91.9099 149.051 73.2955 151.323L73.5378 153.308ZM51.4494 181.002C54.3286 166.322 57.9433 153.693 62.1172 142.822L60.2501 142.105C56.0292 153.098 52.385 165.841 49.4868 180.617L51.4494 181.002ZM62.1644 142.659C65.1533 127.646 63.3991 114.737 61.4993 102.92L59.5246 103.238C61.4194 115.023 63.1173 127.629 60.2029 142.268L62.1644 142.659ZM61.4993 102.92C59.9557 93.3194 58.3353 84.5255 58.956 75.7756C59.5727 67.0826 62.4086 58.421 69.8584 49.171L68.3007 47.9165C60.5899 57.4906 57.606 66.5424 56.961 75.6341C56.3201 84.6688 57.9961 93.7306 59.5246 103.238L61.4993 102.92ZM61.4867 102.856C59.6373 94.7837 57.0223 89.0905 54.4724 85.2423C51.9423 81.424 49.4301 79.3557 47.743 78.6545L46.9755 80.5014C48.1504 80.9897 50.3878 82.6987 52.8052 86.347C55.2028 89.9655 57.7332 95.4282 59.5372 103.302L61.4867 102.856ZM62.1172 142.822C72.4674 115.864 86.2563 99.718 100.822 89.9287L99.7061 88.2688C84.7483 98.3219 70.7242 114.825 60.2501 142.105L62.1172 142.822ZM100.822 89.9287C113.546 81.3767 126.928 77.6324 139.268 75.8245L138.979 73.8456C126.451 75.681 112.756 79.4983 99.7061 88.2688L100.822 89.9287ZM101.043 89.726C113.003 74.8754 119.749 59.239 126.869 46.3363L125.117 45.3701C117.886 58.4767 111.3 73.8018 99.4851 88.4715L101.043 89.726ZM126.869 46.3363C131.217 38.4555 135.702 31.5852 141.6 26.3431C147.474 21.1218 154.792 17.4796 164.87 16.1341L164.605 14.1517C154.144 15.5483 146.453 19.3537 140.271 24.8483C134.113 30.3221 129.495 37.4359 125.117 45.3701L126.869 46.3363ZM126.944 46.1627C129.981 36.8321 132.182 27.217 132.93 18.7226C133.674 10.2731 132.997 2.75187 130.09 -2.24701L128.361 -1.24156C130.945 3.20247 131.673 10.1991 130.938 18.5472C130.207 26.8504 128.046 36.3127 125.042 45.5438L126.944 46.1627ZM167.617 73.628C182.311 72.6611 197.693 69.3473 212.091 64.7156L211.479 62.8117C197.202 67.4045 181.983 70.6784 167.486 71.6323L167.617 73.628ZM212.091 64.7156C227.914 59.6257 242.583 52.9329 253.876 45.9786C259.523 42.5018 264.345 38.9481 268.05 35.4823C271.741 32.0299 274.39 28.6031 275.591 25.3677L273.717 24.6714C272.671 27.4855 270.278 30.6593 266.684 34.0217C263.103 37.3707 258.398 40.846 252.828 44.2756C241.689 51.1342 227.17 57.7639 211.479 62.8117L212.091 64.7156ZM212.59 64.3575C227.946 43.5514 229.343 23.6091 226.181 8.96635L224.226 9.3886C227.277 23.514 225.97 42.8609 210.98 63.1698L212.59 64.3575ZM226.181 8.96635C224.386 0.655998 221.12 -5.95604 218.101 -10.0552L216.491 -8.86901C219.331 -5.01272 222.486 1.33504 224.226 9.3886L226.181 8.96635ZM226.127 9.56C229.565 1.25644 232.741 -3.63128 236.62 -6.98669C240.505 -10.3476 245.182 -12.2513 251.828 -14.4158L251.209 -16.3175C244.54 -14.1455 239.523 -12.1432 235.311 -8.49924C231.093 -4.84973 227.769 0.366364 224.279 8.79495L226.127 9.56ZM275.647 24.9051C274.939 18.7495 275.204 14.2839 276.054 11.1515C276.902 8.02909 278.309 6.30463 279.848 5.46666C281.394 4.62523 283.256 4.57821 285.213 5.18312C287.172 5.78885 289.154 7.03091 290.823 8.63895C292.492 10.2472 293.8 12.1736 294.462 14.098C295.122 16.0178 295.122 17.868 294.305 19.4397C293.489 21.0101 291.761 22.4849 288.591 23.4587C285.413 24.4347 280.863 24.8796 274.567 24.4276L274.424 26.4224C280.856 26.8842 285.678 26.4457 289.178 25.3705C292.686 24.2931 294.943 22.549 296.08 20.3622C297.216 18.1768 297.138 15.7317 296.353 13.4475C295.569 11.1681 294.061 8.98186 292.21 7.19861C290.359 5.41512 288.114 3.98662 285.804 3.27235C283.491 2.55725 281.04 2.54078 278.892 3.71004C276.738 4.88275 275.069 7.14911 274.124 10.6272C273.182 14.0954 272.936 18.84 273.661 25.1339L275.647 24.9051ZM229.103 102.965C246.171 99.9366 262.367 91.6328 278.56 78.6421L277.309 77.082C261.296 89.928 245.402 98.0418 228.753 100.996L229.103 102.965ZM725.439 608.156C682.505 602.024 647.338 583.398 622.843 564.979C610.596 555.771 601.032 546.624 594.509 539.137C591.247 535.392 588.757 532.075 587.075 529.384C586.233 528.039 585.603 526.864 585.179 525.881C584.748 524.882 584.559 524.147 584.538 523.662L582.54 523.751C582.577 524.591 582.873 525.586 583.342 526.673C583.818 527.776 584.502 529.043 585.379 530.445C587.132 533.249 589.692 536.652 593.001 540.451C599.622 548.051 609.291 557.292 621.641 566.578C646.339 585.149 681.815 603.945 725.156 610.135L725.439 608.156ZM583.68 524.697C616.227 520.032 649.844 531.534 676.143 549.107C689.285 557.889 700.567 568.166 708.948 578.65C717.337 589.146 722.771 599.79 724.311 609.305L726.285 608.986C724.67 599.01 719.022 588.051 710.51 577.401C701.988 566.74 690.548 556.327 677.254 547.444C650.682 529.689 616.574 517.962 583.397 522.717L583.68 524.697ZM583.022 524.563L724.782 610.002L725.814 608.289L584.055 522.85L583.022 524.563ZM862.771 615.044C820.405 612.058 780.524 610.003 743.024 608.707L742.955 610.706C780.431 612.001 820.288 614.055 862.631 617.039L862.771 615.044ZM743.024 608.707C737.065 608.501 731.166 608.314 725.327 608.146L725.269 610.145C731.105 610.313 737 610.5 742.955 610.706L743.024 608.707ZM742.013 609.494C733.13 650.406 709.826 682.228 684.259 705.399C658.685 728.575 630.896 743.052 613.157 749.274L613.819 751.161C631.8 744.854 659.823 730.243 685.602 706.881C711.387 683.513 734.973 651.344 743.967 609.918L742.013 609.494ZM614.482 750.33C617.9 720.093 636.541 691.752 661.198 667.634C685.842 643.529 716.396 623.741 743.427 610.606L742.553 608.807C715.368 622.017 684.626 641.921 659.8 666.204C634.987 690.474 615.986 719.217 612.494 750.106L614.482 750.33ZM614.223 750.896L743.725 610.384L742.254 609.029L612.753 749.54L614.223 750.896ZM577.004 608.146C528.937 683.038 454.138 732.228 421.916 748.279L422.807 750.069C455.241 733.914 530.367 684.513 578.687 609.227L577.004 608.146ZM423.323 749.448C442.827 681.067 504.78 624.381 578.042 609.667L577.649 607.706C503.68 622.562 441.117 679.772 421.4 748.899L423.323 749.448ZM577.272 607.867C495.867 664.836 439.577 725.364 421.572 748.56L423.151 749.787C441.032 726.752 497.175 666.361 578.419 609.506L577.272 607.867ZM725.327 608.146C657.784 606.199 598.229 606.725 546.006 608.66L546.08 610.659C598.26 608.726 657.771 608.2 725.269 610.145L725.327 608.146ZM546.091 608.661C446.899 603.87 408.236 545.405 401.275 517.058L399.333 517.535C406.508 546.753 445.93 605.826 545.995 610.658L546.091 608.661ZM400.453 518.285C441.997 512.032 474.732 525.99 498.81 546.004C522.913 566.039 538.318 592.129 545.108 610.014L546.978 609.305C540.085 591.149 524.496 564.754 500.088 544.466C475.655 524.157 442.362 509.954 400.155 516.308L400.453 518.285ZM546.578 608.815L400.839 516.452L399.769 518.141L545.508 610.504L546.578 608.815ZM546.006 608.66C503.151 610.248 465.234 612.784 431.893 615.681L432.066 617.674C465.377 614.78 503.26 612.245 546.08 610.659L546.006 608.66ZM431.017 616.408C427.593 628.644 419.082 641.826 407.838 654.872C396.606 667.904 382.709 680.729 368.609 692.254C354.511 703.776 340.228 713.985 328.236 721.785C316.219 729.602 306.568 734.956 301.718 736.817L302.434 738.684C307.499 736.741 317.304 731.282 329.326 723.462C341.374 715.626 355.716 705.375 369.874 693.802C384.03 682.232 398.02 669.326 409.352 656.178C420.672 643.045 429.402 629.599 432.943 616.947L431.017 616.408ZM303.05 737.976C309.212 711.355 329.036 684.706 353.637 662.957C378.228 641.216 407.458 624.491 432.246 617.641L431.714 615.714C406.569 622.661 377.076 639.565 352.312 661.458C327.559 683.343 307.396 710.332 301.101 737.525L303.05 737.976ZM431.384 615.874C366.01 664.358 317.438 716.885 301.294 737.127L302.857 738.374C318.9 718.259 367.349 665.856 432.576 617.481L431.384 615.874ZM431.893 615.681C415.909 617.07 400.977 618.542 387.057 620.031L387.27 622.02C401.178 620.532 416.097 619.061 432.066 617.674L431.893 615.681ZM387.057 620.031C359.57 622.973 336.029 625.984 316.134 628.566C296.231 631.148 279.997 633.298 267.092 634.521L267.28 636.512C280.229 635.285 296.507 633.129 316.392 630.549C336.284 627.968 359.806 624.959 387.27 622.02L387.057 620.031ZM387.277 620.032C345.026 615.202 318.708 610.169 299.84 599.741C281.048 589.355 269.542 573.553 257.124 546.826L255.31 547.669C267.797 574.544 279.533 590.803 298.872 601.492C318.135 612.138 344.838 617.193 387.05 622.019L387.277 620.032ZM256.339 548.24C328.13 539.391 372.868 593.327 386.26 621.456L388.066 620.596C374.5 592.101 329.118 537.254 256.095 546.255L256.339 548.24ZM255.59 548.027C296.442 580.878 360.082 610.997 386.784 621.951L387.543 620.1C360.896 609.169 297.469 579.137 256.844 546.468L255.59 548.027ZM1157.67 179.111C1186.52 140.969 1189.45 120.125 1188.33 104.372L1186.34 104.514C1187.41 119.652 1184.72 140.029 1156.07 177.905L1157.67 179.111ZM1157.64 177.876C1144.67 161.987 1131.22 146.99 1118.27 132.711L1116.79 134.055C1129.73 148.331 1143.15 163.296 1156.1 179.141L1157.64 177.876ZM1117.13 132.466C1077.37 149.763 1048 143.511 1038.47 138.399L1037.53 140.161C1047.69 145.614 1077.71 151.795 1117.93 134.3L1117.13 132.466ZM1118.27 132.711C1109.77 123.336 1101.49 114.274 1093.69 105.462L1092.19 106.788C1100 115.612 1108.3 124.687 1116.79 134.055L1118.27 132.711ZM1093.69 105.462C1088.12 99.1801 1082.81 93.0297 1077.84 86.9909L1076.3 88.2616C1081.29 94.3253 1086.62 100.495 1092.19 106.788L1093.69 105.462ZM1093.73 106.733C1109.52 86.1247 1117.53 71.4674 1121.11 61.4817C1122.89 56.49 1123.59 52.623 1123.57 49.7389C1123.56 46.8864 1122.83 44.8346 1121.58 43.7075L1120.24 45.195C1120.89 45.7771 1121.56 47.1472 1121.57 49.7516C1121.59 52.3244 1120.96 55.9493 1119.22 60.8069C1115.74 70.5198 1107.87 84.9903 1092.14 105.517L1093.73 106.733ZM1077.84 86.9909C1071.19 78.9022 1065.19 69.7554 1059.6 60.6473L1057.9 61.6931C1063.5 70.8273 1069.55 80.0663 1076.3 88.2616L1077.84 86.9909ZM1058.4 60.234C1033.76 69.4799 1016.77 61.286 1011.49 56.2637L1010.11 57.7133C1015.98 63.2902 1033.78 71.6077 1059.1 62.1065L1058.4 60.234ZM1059.6 60.6473C1055.64 54.1982 1051.92 47.8163 1048.3 41.8142L1046.59 42.8479C1050.18 48.8047 1053.94 55.2466 1057.9 61.6931L1059.6 60.6473ZM1048.3 41.8142C1042.43 32.0955 1036.85 23.4153 1031.21 17.5907L1029.77 18.982C1035.23 24.6199 1040.71 33.1084 1046.59 42.8479L1048.3 41.8142ZM1048.24 42.9343C1059.81 27.6345 1065.53 16.545 1067.95 8.85789C1069.16 5.01408 1069.56 1.9831 1069.43 -0.318714C1069.29 -2.59933 1068.63 -4.27908 1067.59 -5.24953L1066.23 -3.78469C1066.74 -3.30216 1067.31 -2.21244 1067.43 -0.202888C1067.55 1.78546 1067.21 4.56535 1066.05 8.25729C1063.72 15.6417 1058.15 26.5233 1046.64 41.7278L1048.24 42.9343ZM1207.46 251.711C1198.61 234.547 1188.23 218.349 1177.06 202.977L1175.44 204.153C1186.57 219.462 1196.89 235.573 1205.68 252.628L1207.46 251.711ZM1177.06 202.977C1170.8 194.359 1164.28 186 1157.64 177.876L1156.1 179.141C1162.71 187.241 1169.2 195.57 1175.44 204.153L1177.06 202.977ZM1175.8 202.671C1133.48 223.908 1103.07 222.76 1086.8 214.379C1078.65 210.185 1074.12 204.232 1073.21 198.409C1072.3 192.64 1074.9 186.732 1081.6 182.438L1080.52 180.755C1073.27 185.399 1070.18 192.035 1071.23 198.72C1072.27 205.353 1077.36 211.766 1085.88 216.157C1102.94 224.947 1134.08 225.845 1176.7 204.459L1175.8 202.671ZM1176.94 204.288C1214.7 168.17 1222.65 126.908 1215.36 101.128C1211.72 88.2635 1204.22 79.0769 1194.53 76.6057C1184.8 74.1234 1173.35 78.5314 1162.11 91.7906L1163.64 93.0839C1174.63 80.1194 1185.36 76.3288 1194.04 78.5436C1202.76 80.7697 1209.9 89.1761 1213.43 101.672C1220.49 126.611 1212.89 167.137 1175.56 202.842L1176.94 204.288ZM1163.88 92.412C1163.27 68.3487 1160.51 50.6332 1156.42 37.9524C1152.33 25.2837 1146.87 17.5372 1140.78 13.5711C1134.65 9.57619 1128.03 9.50896 1121.88 11.894C1115.77 14.2667 1110.11 19.0632 1105.73 24.8501L1107.33 26.0566C1111.54 20.4798 1116.92 15.9628 1122.61 13.7586C1128.26 11.5668 1134.19 11.6592 1139.69 15.2467C1145.24 18.8629 1150.5 26.1215 1154.51 38.5668C1158.53 51.0001 1161.27 68.5076 1161.88 92.4625L1163.88 92.412ZM1107.53 25.4165C1106.08 -13.9664 1092.02 -34.0747 1077.42 -38.7588C1070.09 -41.1084 1062.74 -39.5131 1057.07 -34.6037C1051.41 -29.7075 1047.48 -21.5813 1046.76 -10.9461L1048.76 -10.8117C1049.45 -21.0392 1053.2 -28.6184 1058.38 -33.0911C1063.53 -37.5506 1070.15 -38.9879 1076.81 -36.8543C1090.16 -32.5721 1104.09 -13.6516 1105.53 25.4902L1107.53 25.4165ZM1048.42 -11.6285C1032.32 -25.8478 1019.33 -31.7307 1009.39 -31.9043C999.331 -32.08 992.599 -26.4058 989.154 -18.1493C985.732 -9.94912 985.521 0.820759 988.321 11.1587C991.123 21.507 996.972 31.5419 1005.82 38.2337L1007.03 36.6386C998.601 30.2663 992.962 20.6482 990.251 10.636C987.537 0.61327 987.789 -9.68505 990.999 -17.3792C994.186 -25.0171 1000.26 -30.0635 1009.36 -29.9046C1018.58 -29.7434 1031.12 -24.2365 1047.1 -10.1293L1048.42 -11.6285ZM1006.14 36.4772C993.695 40.1594 986.775 45.2628 984.076 51.3758C981.365 57.5161 983.067 64.3111 986.962 70.9738C990.865 77.6516 997.085 84.4014 1003.81 90.6112C1010.55 96.8301 1017.85 102.554 1023.95 107.171L1025.16 105.576C1019.07 100.971 1011.83 95.2939 1005.17 89.1416C998.494 82.9802 992.444 76.3887 988.688 69.9645C984.924 63.5252 983.577 57.4574 985.906 52.1836C988.247 46.8824 994.455 42.0203 1006.71 38.395L1006.14 36.4772ZM1024.3 105.407C1012.57 108.539 1006.19 114.676 1004.53 122.408C1002.88 130.053 1005.92 138.907 1012.18 147.345C1024.72 164.247 1050.62 180.115 1080.98 182.593L1081.14 180.6C1051.32 178.166 1025.96 162.565 1013.79 146.154C1007.69 137.936 1005.01 129.673 1006.48 122.829C1007.94 116.072 1013.53 110.35 1024.81 107.34L1024.3 105.407ZM853.689 616.419C881.908 618.818 900.923 613.926 912.893 605.003L911.698 603.399C900.269 611.919 881.815 616.803 853.859 614.426L853.689 616.419ZM911.316 603.998C910.307 608.863 912.853 614.248 917.191 619.032C921.566 623.855 927.935 628.272 935.059 631.259C949.257 637.211 966.914 637.622 977.707 623.473L976.117 622.26C966.133 635.348 949.659 635.211 935.832 629.414C928.942 626.526 922.826 622.268 918.673 617.688C914.483 613.069 912.461 608.324 913.274 604.404L911.316 603.998ZM976.752 621.879C976.166 621.974 975.53 622.002 974.845 621.963L974.731 623.959C975.539 624.005 976.322 623.975 977.073 623.853L976.752 621.879ZM974.845 621.963C971.406 621.767 966.997 619.925 961.962 617.241C956.945 614.567 951.521 611.18 945.99 607.988C940.501 604.82 934.94 601.866 929.802 600.175C924.686 598.492 919.784 597.994 915.748 600.018L916.645 601.805C919.967 600.14 924.229 600.447 929.177 602.075C934.104 603.696 939.512 606.558 944.99 609.72C950.428 612.858 955.972 616.315 961.021 619.006C966.053 621.689 970.809 623.736 974.731 623.959L974.845 621.963ZM915.748 600.018C914.155 600.817 912.73 601.994 911.502 603.592L913.088 604.81C914.144 603.436 915.339 602.461 916.645 601.805L915.748 600.018ZM976.858 621.868C976.153 621.906 975.451 621.938 974.754 621.962L974.822 623.96C975.533 623.936 976.249 623.904 976.967 623.865L976.858 621.868ZM974.754 621.962C944.135 623.013 920.822 610.093 912.94 603.437L911.65 604.965C919.865 611.903 943.651 625.03 974.822 623.96L974.754 621.962ZM912.881 603.391C898.393 592.913 889.997 583.63 885.464 573.675C880.932 563.724 880.201 552.977 881.295 539.439L879.302 539.278C878.197 552.955 878.906 564.101 883.644 574.504C888.379 584.902 897.081 594.432 911.709 605.011L912.881 603.391ZM879.991 540.31C891.417 543.993 899.462 555.018 904.56 567.757C909.646 580.464 911.694 594.624 911.296 604.159L913.294 604.243C913.705 594.418 911.606 579.977 906.417 567.014C901.241 554.081 892.883 542.365 880.605 538.406L879.991 540.31ZM913.192 603.759L881.195 538.916L879.402 539.801L911.398 604.644L913.192 603.759ZM912.893 605.003C914.325 603.935 915.655 602.811 916.887 601.635L915.506 600.188C914.334 601.307 913.065 602.38 911.698 603.399L912.893 605.003ZM916.887 601.635C926.555 592.409 930.103 580.116 929.55 567.737L927.552 567.826C928.085 579.765 924.667 591.446 915.506 600.188L916.887 601.635ZM927.579 568.015C929.157 574.575 932.768 579.173 937.548 581.889C942.306 584.594 948.143 585.389 954.138 584.519C966.115 582.781 978.94 574.369 985.689 560.624L983.894 559.742C977.435 572.896 965.175 580.897 953.851 582.54C948.195 583.361 942.827 582.589 938.536 580.15C934.265 577.723 930.98 573.601 929.524 567.548L927.579 568.015ZM929.546 567.882C930.098 562.406 932.16 558.832 935.228 556.584C938.332 554.308 942.604 553.289 947.754 553.23C958.075 553.114 971.411 556.855 984.48 561.133L985.102 559.233C972.065 554.965 958.429 551.109 947.731 551.23C942.372 551.291 937.622 552.349 934.045 554.97C930.432 557.619 928.153 561.761 927.556 567.681L929.546 567.882ZM927.914 568.552C929.054 569.496 930.59 570.11 932.35 570.493C934.119 570.878 936.181 571.043 938.437 571.041C942.949 571.038 948.349 570.364 953.951 569.333C965.161 567.27 977.326 563.748 985.11 561.131L984.473 559.235C976.748 561.832 964.679 565.325 953.589 567.366C948.041 568.387 942.774 569.038 938.436 569.041C936.266 569.043 934.358 568.883 932.775 568.539C931.185 568.193 929.991 567.675 929.189 567.011L927.914 568.552ZM929.55 567.737C928.815 551.265 920.823 534.505 910.119 524.217L908.733 525.659C919.071 535.596 926.84 551.873 927.552 567.826L929.55 567.737ZM910.119 524.217C903.715 518.061 896.242 514.132 888.679 514.103L888.672 516.103C895.543 516.129 902.548 519.714 908.733 525.659L910.119 524.217ZM910.366 524.597C900.645 497.814 915.214 477.13 931.096 473.309L930.629 471.365C913.442 475.499 898.41 497.519 908.486 525.279L910.366 524.597ZM929.906 472.63C934.911 488.955 932.37 500.758 927.31 508.972C922.225 517.226 914.528 521.969 909.077 524.001L909.775 525.875C915.543 523.725 923.644 518.737 929.013 510.021C934.406 501.266 936.973 488.858 931.819 472.044L929.906 472.63ZM910.352 525.315L931.789 472.714L929.937 471.96L908.5 524.561L910.352 525.315ZM888.679 514.103C881.45 514.076 875.188 513.295 869.806 511.932L869.316 513.871C874.878 515.279 881.305 516.075 888.672 516.103L888.679 514.103ZM870.462 512.467C867.253 505.816 866.275 500.291 866.707 495.423C867.14 490.548 868.994 486.239 871.603 482.026C874.227 477.788 877.555 473.733 880.935 469.285C884.293 464.865 887.66 460.107 890.227 454.582L888.414 453.739C885.939 459.064 882.679 463.684 879.342 468.075C876.027 472.438 872.593 476.627 869.903 480.973C867.197 485.342 865.185 489.954 864.715 495.246C864.245 500.543 865.328 506.428 868.66 513.336L870.462 512.467ZM888.385 454.515C895.774 473.994 893.529 487.172 888.269 496.027C882.979 504.935 874.528 509.661 869.164 511.984L869.959 513.819C875.485 511.426 884.386 506.483 889.989 497.049C895.622 487.563 897.812 473.728 890.255 453.806L888.385 454.515ZM870.431 513.395C880.901 494.916 889.889 470.837 890.32 454.186L888.321 454.134C887.902 470.306 879.095 494.046 868.691 512.409L870.431 513.395ZM869.806 511.932C864.215 510.517 859.575 508.475 855.783 506.001L854.69 507.676C858.687 510.284 863.535 512.408 869.316 513.871L869.806 511.932ZM854.274 507.109C857.103 517.18 854.248 528.687 847.81 536.916C841.39 545.121 831.516 549.95 820.303 546.956L819.787 548.888C831.939 552.134 842.586 546.838 849.385 538.148C856.164 529.483 859.222 517.328 856.2 506.568L854.274 507.109ZM821.045 547.911C820.857 531.012 826.584 520.899 833.675 515.063C840.807 509.192 849.441 507.547 855.186 507.837L855.287 505.84C849.143 505.53 839.991 507.274 832.404 513.519C824.775 519.798 818.851 530.526 819.045 547.933L821.045 547.911ZM820.587 548.762C844.245 533.506 854.183 514.747 856.204 507.094L854.27 506.583C852.389 513.706 842.786 532.068 819.503 547.082L820.587 548.762ZM855.783 506.001C846.87 500.184 842.567 491.924 841.66 483.548L839.671 483.764C840.64 492.706 845.251 501.516 854.69 507.676L855.783 506.001ZM841.66 483.548C840.794 475.557 843.02 467.448 847.329 461.266C851.635 455.086 857.967 450.897 865.303 450.569L865.214 448.571C857.125 448.933 850.268 453.55 845.688 460.123C841.11 466.692 838.752 475.282 839.671 483.764L841.66 483.548ZM840.294 482.728C826.604 488.201 815.067 486.619 805.953 481.259C796.799 475.875 790.002 466.622 785.982 456.63L784.127 457.376C788.265 467.661 795.309 477.318 804.939 482.983C814.61 488.671 826.798 490.278 841.037 484.585L840.294 482.728ZM841.475 483.069C829.942 467.176 818.901 459.257 809.121 455.905C799.329 452.55 790.913 453.81 784.713 456.063L785.396 457.943C791.261 455.811 799.199 454.619 808.472 457.797C817.756 460.979 828.489 468.579 839.856 484.244L841.475 483.069ZM841.098 482.754L785.487 456.101L784.622 457.905L840.233 484.558L841.098 482.754ZM-10.7265 736.681L54.1446 675.223L52.7691 673.771L-12.102 735.229L-10.7265 736.681ZM-10.4608 735.653L-35.7973 655.548L-37.7042 656.151L-12.3677 736.256L-10.4608 735.653ZM6.27703 652.312L-29.439 580.91L-31.2277 581.805L4.48833 653.206L6.27703 652.312ZM5.96597 653.571L64.2612 611.71L63.0946 610.085L4.79939 651.947L5.96597 653.571ZM27.8042 564.791L-7.41024 498.066L-9.17902 499L26.0354 565.725L27.8042 564.791ZM27.4311 566.117L87.1221 530.609L86.0996 528.89L26.4086 564.398L27.4311 566.117ZM52.5961 484.108C62.2073 455.501 70.937 432.565 78.1729 413.554L76.3037 412.842C69.0673 431.855 60.3251 454.823 50.7002 483.471L52.5961 484.108ZM78.1729 413.554L78.7486 412.041L76.8794 411.33L76.3037 412.842L78.1729 413.554ZM52.5856 483.441L33.2235 431.314L31.3486 432.01L50.7107 484.138L52.5856 483.441ZM52.0422 484.708L93.2074 467.059L92.4193 465.221L51.2541 482.87L52.0422 484.708ZM-32.6898 876.17C-29.0951 849.886 -25.3954 824.981 -21.6205 801.371L-23.5954 801.055C-27.3727 824.681 -31.0747 849.601 -34.6713 875.899L-32.6898 876.17ZM-21.6205 801.371C-17.9524 778.429 -14.2133 756.709 -10.4308 736.136L-12.3978 735.774C-16.1832 756.363 -19.9249 778.098 -23.5954 801.055L-21.6205 801.371ZM-10.4308 736.136C-4.89855 706.045 0.726688 678.406 6.35902 652.975L4.40634 652.543C-1.23137 677.997 -6.86136 705.661 -12.3978 735.774L-10.4308 736.136ZM6.35902 652.975C13.5828 620.36 20.8184 591.378 27.8844 565.521L25.9552 564.994C18.8804 590.883 11.6371 619.896 4.40634 652.543L6.35902 652.975ZM27.8844 565.521C36.4808 534.065 44.8267 507.233 52.5961 484.108L50.7002 483.471C42.9194 506.63 34.5623 533.499 25.9552 564.994L27.8844 565.521ZM125.868 307.81C115.964 358.895 109.569 412.547 103.574 464.939C97.5773 517.346 91.982 568.482 83.6782 614.603C75.3733 660.729 64.3721 701.756 47.5996 733.959C30.8364 766.143 8.34421 789.448 -22.9348 800.268L-22.281 802.158C9.61973 791.123 32.4519 767.371 49.3734 734.882C66.2857 702.412 77.3297 661.149 85.6465 614.957C93.9644 568.759 99.5673 517.548 105.561 465.166C111.557 412.769 117.945 359.19 127.832 308.19L125.868 307.81ZM-21.6738 800.856C-114.421 558.143 21.6504 384.581 127.432 308.813L126.268 307.187C20.0772 383.247 -116.739 557.679 -23.5421 801.57L-21.6738 800.856ZM1181.27 738.511L1174.83 695.575L1172.86 695.872L1179.29 738.807L1181.27 738.511ZM1174.83 695.575L1123.35 352.088L1121.37 352.384L1172.86 695.872L1174.83 695.575ZM1174.34 696.592C1182.27 692.066 1188.93 682.502 1194.33 670.263C1199.75 657.986 1203.98 642.855 1206.99 626.977C1212.99 595.242 1214.12 560.318 1209.88 538.935L1207.92 539.325C1212.1 560.367 1211 595.013 1205.02 626.605C1202.03 642.391 1197.84 657.363 1192.5 669.455C1187.15 681.584 1180.71 690.654 1173.35 694.855L1174.34 696.592ZM1208.33 538.309L1190.1 550.978L1191.24 552.621L1209.47 539.951L1208.33 538.309ZM1191.61 552.121C1203.5 517.114 1209.1 493.71 1211.25 478.66C1212.33 471.139 1212.56 465.671 1212.27 461.868C1212.12 459.968 1211.85 458.453 1211.47 457.293C1211.09 456.154 1210.59 455.251 1209.91 454.705L1208.66 456.265C1208.9 456.459 1209.25 456.933 1209.57 457.914C1209.88 458.873 1210.14 460.218 1210.27 462.021C1210.55 465.624 1210.34 470.933 1209.27 478.376C1207.14 493.256 1201.58 516.531 1189.72 551.478L1191.61 552.121ZM1208.5 454.86L1184.95 484.251L1186.51 485.502L1210.06 456.11L1208.5 454.86ZM1186.7 485.091C1201.21 419.178 1186.41 379.754 1181.78 367.412L1179.9 368.115C1184.46 380.247 1199.14 419.258 1184.75 484.661L1186.7 485.091ZM1181.78 367.412L1181.7 367.217L1179.83 367.921L1179.9 368.115L1181.78 367.412ZM1179.99 366.944L1166.67 383.556L1168.23 384.807L1181.55 368.194L1179.99 366.944ZM1168.43 383.985C1162.14 352.587 1151.52 333.466 1140.55 320.696C1129.63 307.981 1118.32 301.543 1111.08 295.741L1109.83 297.302C1117.35 303.329 1128.27 309.468 1139.03 321.999C1149.75 334.476 1160.24 353.27 1166.47 384.378L1168.43 383.985ZM1109.59 296.015C1095.71 319.661 1087.52 343.164 1084.44 362.88C1082.89 372.738 1082.62 381.672 1083.56 389.216C1084.49 396.749 1086.65 402.968 1090.03 407.323L1091.61 406.097C1088.53 402.127 1086.45 396.298 1085.54 388.969C1084.63 381.652 1084.89 372.911 1086.41 363.189C1089.46 343.748 1097.55 320.481 1111.32 297.028L1109.59 296.015ZM1091.15 405.768L1062.87 395.692L1062.2 397.576L1090.48 407.652L1091.15 405.768ZM1061.55 396.783C1067.32 435.136 1082.77 466.494 1097.11 498.937L1098.94 498.129C1084.56 465.584 1069.25 434.511 1063.52 396.485L1061.55 396.783ZM1098.29 497.57L1070.21 489.757L1069.68 491.684L1097.75 499.497L1098.29 497.57ZM1069.02 491.095L1111.68 596.646L1113.53 595.896L1070.87 490.346L1069.02 491.095ZM1112.91 595.32L1095.29 589.588L1094.67 591.49L1112.3 597.222L1112.91 595.32ZM1094 590.714C1095.77 600.68 1100.84 611.975 1107.57 623.345C1114.32 634.729 1122.79 646.253 1131.43 656.685C1140.07 667.117 1148.9 676.475 1156.38 683.528C1160.12 687.054 1163.54 690.012 1166.43 692.243C1169.3 694.455 1171.73 696.014 1173.5 696.662L1174.19 694.785C1172.73 694.25 1170.5 692.858 1167.65 690.659C1164.83 688.48 1161.46 685.569 1157.75 682.072C1150.33 675.081 1141.56 665.784 1132.97 655.409C1124.37 645.033 1115.98 633.597 1109.3 622.326C1102.61 611.041 1097.68 599.986 1095.96 590.364L1094 590.714Z" fill="#C3F376"/>
</svg>
