<svg width="1180" height="120" viewBox="0 0 1180 120" fill="none" xmlns="http://www.w3.org/2000/svg">
<path opacity="0.25" d="M0 0V46.29C46.9935 68.49 101.864 78.46 155.367 74.29C224.554 68.92 289.424 40.98 358.72 36.79C431.329 32.43 503.801 53.67 573.283 72.05C641.399 90.05 709.278 96.93 779.193 85.13C814.741 79.13 847.879 67.29 881.902 55.79C972.998 25 1094.45 -14.29 1180 52.47V0H0Z" fill="#9FE95A"/>
<path opacity="0.5" d="M0 0V15.81C12.7833 36.92 27.1793 56.86 46.8952 72.05C97.7532 111.27 162.25 111 220.837 91.58C251.468 81.43 279.926 65.51 309.013 51.78C349.251 32.78 392.33 5.78 437.662 2.11C473.318 -0.74 507.38 11.53 534.619 33.67C565.859 59.06 595.9 95.67 636.521 106.67C676.288 117.46 716.516 99.98 753.666 82.39C790.816 64.8 827.573 43.39 868.637 39.34C927.372 33.49 980.029 62.22 1034.72 78.18C1064.42 86.84 1092.74 84.35 1120.36 70.68C1142.42 59.79 1167.56 43.75 1180 21.44V0H0Z" fill="#9FE95A"/>
<path d="M0 0V5.63C147.431 59 308.855 71.32 467.9 42.57C510.183 34.93 550.726 22.45 593.383 16.11C651.399 7.48 703.988 28.35 756.183 51.51C814.131 77.22 871.233 95.24 935.347 90C1020.43 83 1104.93 44.29 1180 5.19V0H0Z" fill="#9FE95A"/>
</svg>
