<svg width="13" height="9" viewBox="0 0 13 9" fill="none" xmlns="http://www.w3.org/2000/svg">
<path d="M0.871052 0.972226C1.35212 0.472938 2.13207 0.472937 2.61314 0.972226L7.33272 5.87062C7.81379 6.3699 7.81379 7.17941 7.33272 7.6787C6.85166 8.17799 6.0717 8.17799 5.59064 7.6787L0.871051 2.78031C0.389988 2.28102 0.389988 1.47152 0.871052 0.972226Z" fill="white"/>
<path d="M5.59617 7.68437C5.11511 7.18508 5.11511 6.37557 5.59617 5.87629L10.3869 0.904066C10.868 0.404779 11.6479 0.404781 12.129 0.904069C12.6101 1.40336 12.6101 2.21287 12.129 2.71216L7.33826 7.68438C6.85719 8.18366 6.07723 8.18366 5.59617 7.68437Z" fill="white"/>
</svg>
