<svg width="16" height="9" viewBox="0 0 16 9" fill="none" xmlns="http://www.w3.org/2000/svg">
<g id="Filters Down Arrow">
<path d="M1.07205 1.0189C1.66413 0.495679 2.62408 0.495679 3.21616 1.0189L9.02488 6.15203C9.61696 6.67524 9.61695 7.52354 9.02488 8.04676C8.4328 8.56997 7.47285 8.56997 6.88077 8.04676L1.07205 2.91363C0.479971 2.39041 0.479972 1.54211 1.07205 1.0189Z" fill="#D9D9D9"/>
<path d="M6.88742 8.05267C6.29534 7.52945 6.29535 6.68115 6.88743 6.15793L12.7837 0.947432C13.3758 0.424219 14.3358 0.42422 14.9278 0.947435C15.5199 1.47065 15.5199 2.31895 14.9278 2.84217L9.03153 8.05267C8.43945 8.57588 7.4795 8.57588 6.88742 8.05267Z" fill="#D9D9D9"/>
</g>
</svg>
