<svg width="20" height="20" viewBox="0 0 20 20" fill="none" xmlns="http://www.w3.org/2000/svg">
<path d="M19.7447 12.4032L17.9503 11.4113C18.1314 10.4758 18.1314 9.51613 17.9503 8.58065L19.7447 7.58872C19.9511 7.47582 20.0437 7.24195 19.9763 7.0242C19.5088 5.58873 18.7127 4.29034 17.6723 3.2097C17.5122 3.04438 17.2511 3.00406 17.0489 3.11696L15.2546 4.10889C14.5006 3.48793 13.6329 3.00809 12.6936 2.69358V0.713745C12.6936 0.487939 12.5293 0.290359 12.2976 0.241972C10.7518 -0.0886716 9.16805 -0.0725426 7.69802 0.241972C7.46635 0.290359 7.30208 0.487939 7.30208 0.713745V2.69761C6.36699 3.01616 5.4993 3.49599 4.74111 4.11293L2.95097 3.12099C2.74457 3.00809 2.48763 3.04438 2.32757 3.21374C1.28718 4.29034 0.491091 5.58873 0.0235465 7.02824C-0.0480595 7.24598 0.0488191 7.47985 0.255213 7.59275L2.04957 8.58468C1.86845 9.52016 1.86845 10.4798 2.04957 11.4153L0.255213 12.4072C0.0488191 12.5202 -0.0438474 12.754 0.0235465 12.9718C0.491091 14.4072 1.28718 15.7056 2.32757 16.7863C2.48763 16.9516 2.74878 16.9919 2.95097 16.879L4.74533 15.8871C5.4993 16.508 6.36699 16.9879 7.30629 17.3024V19.2863C7.30629 19.5121 7.47057 19.7096 7.70223 19.758C9.24808 20.0887 10.8318 20.0725 12.3019 19.758C12.5335 19.7096 12.6978 19.5121 12.6978 19.2863V17.3024C13.6329 16.9838 14.5006 16.504 15.2588 15.8871L17.0531 16.879C17.2595 16.9919 17.5165 16.9556 17.6765 16.7863C18.7169 15.7097 19.513 14.4113 19.9805 12.9718C20.0437 12.75 19.9511 12.5161 19.7447 12.4032ZM9.99783 13.2218C8.14029 13.2218 6.62814 11.7742 6.62814 9.99597C6.62814 8.21775 8.14029 6.77017 9.99783 6.77017C11.8554 6.77017 13.3675 8.21775 13.3675 9.99597C13.3675 11.7742 11.8554 13.2218 9.99783 13.2218Z" fill="#9F9F9F"/>
</svg>
