<svg width="20" height="20" viewBox="0 0 20 20" fill="none" xmlns="http://www.w3.org/2000/svg">
<path d="M9.87109 0C4.27835 0 0.00012207 4.35477 0.00012207 10.0908C0.00012207 14.6772 2.81464 18.6019 6.8348 19.9832C7.35093 20.0783 7.53238 19.7516 7.53238 19.4827C7.53238 19.2263 7.52028 17.812 7.52028 16.9435C7.52028 16.9435 4.6977 17.5638 4.10496 15.7111C4.10496 15.7111 3.64528 14.5076 2.98399 14.1975C2.98399 14.1975 2.06061 13.5482 3.04851 13.5606C3.04851 13.5606 4.05254 13.6433 4.60496 14.6276C5.48802 16.2239 6.96786 15.7649 7.54448 15.4919C7.63722 14.8302 7.89932 14.3712 8.18964 14.0982C5.93561 13.8418 3.66141 13.5068 3.66141 9.52839C3.66141 8.3911 3.96786 7.82039 4.61303 7.09253C4.50819 6.82372 4.16544 5.71538 4.71786 4.28447C5.56061 4.01565 7.50012 5.40108 7.50012 5.40108C8.30657 5.16948 9.17351 5.04955 10.0324 5.04955C10.8913 5.04955 11.7582 5.16948 12.5646 5.40108C12.5646 5.40108 14.5042 4.01152 15.3469 4.28447C15.8993 5.71952 15.5566 6.82372 15.4517 7.09253C16.0969 7.82453 16.4921 8.39524 16.4921 9.52839C16.4921 13.5192 14.1171 13.8377 11.863 14.0982C12.234 14.4249 12.5485 15.0453 12.5485 16.0171C12.5485 17.4108 12.5364 19.1354 12.5364 19.4745C12.5364 19.7433 12.7219 20.07 13.234 19.9749C17.2663 18.6019 20.0001 14.6772 20.0001 10.0908C20.0001 4.35477 15.4638 0 9.87109 0Z" fill="#9F9F9F"/>
</svg>
