<svg width="14" height="14" viewBox="0 0 14 14" fill="none" xmlns="http://www.w3.org/2000/svg">
<path d="M10.9393 13.0607C11.5251 13.6464 12.4749 13.6464 13.0607 13.0607C13.6464 12.4749 13.6464 11.5251 13.0607 10.9393L10.9393 13.0607ZM13.0607 10.9393L9.36835 7.24703L7.24703 9.36835L10.9393 13.0607L13.0607 10.9393Z" fill="white"/>
<path fill-rule="evenodd" clip-rule="evenodd" d="M5.53846 11.0769C8.59727 11.0769 11.0769 8.59727 11.0769 5.53846C11.0769 2.47965 8.59727 0 5.53846 0C2.47965 0 0 2.47965 0 5.53846C0 8.59727 2.47965 11.0769 5.53846 11.0769ZM5.53847 9.23077C7.57767 9.23077 9.23078 7.57767 9.23078 5.53846C9.23078 3.49926 7.57767 1.84615 5.53847 1.84615C3.49926 1.84615 1.84616 3.49926 1.84616 5.53846C1.84616 7.57767 3.49926 9.23077 5.53847 9.23077Z" fill="white"/>
</svg>
